<?xml version="1.0" encoding="UTF-8"?>
<svg width="15px" height="14px" viewBox="0 0 15 14" version="1.1" xmlns="http://www.w3.org/2000/svg" xmlns:xlink="http://www.w3.org/1999/xlink">
    <!-- Generator: Sketch 52.6 (67491) - http://www.bohemiancoding.com/sketch -->
    <title>Path_15</title>
    <desc>Created with Sketch.</desc>
    <g id="Page-1" stroke="none" stroke-width="1" fill="none" fill-rule="evenodd">
        <g id="Artboard" transform="translate(-45.000000, -12.000000)" fill="#FFFFFF">
            <g id="logo-symbol" transform="translate(32.500000, 34.400000) scale(-1, 1) translate(-32.500000, -34.400000) translate(4.000000, 5.900000)">
                <g id="Group_16" transform="translate(0.500000, 0.300000)">
                    <g id="Group">
                        <path d="M1.19951659,18.5497603 C1.19951659,16.8481027 1.16640009,14.9582017 1.10016699,12.8800574 C1.10016699,8.8960772 4.19637159,5.6664231 8.01573349,5.6664231 C10.9868781,5.6664231 13.5038942,7.6299608 14.4991684,10.3644544 C14.5576845,10.5252258 14.9843963,12.5726632 13.2804059,13.192865 C11.5764155,13.8130668 10.6854999,11.9230075 10.6147846,11.7467339 C10.1895489,10.6867387 9.18581019,9.9419947 8.01531459,9.9419947 C6.45971529,9.9419947 5.19865279,11.2574102 5.19865279,12.8800574 C5.26488589,15.2796468 5.29800249,17.1322965 5.29800249,18.4380066 C5.29800249,18.8149786 4.76128739,20.2489044 3.24283829,20.2678194 C1.72438919,20.2867344 1.19951659,18.844659 1.19951659,18.5497603 Z" id="Path_15" transform="translate(7.844549, 12.967213) rotate(-90.000000) translate(-7.844549, -12.967213) "></path>
                    </g>
                </g>
            </g>
        </g>
    </g>
</svg>